<?xml version="1.0" encoding="utf-8"?>
<!-- Generator: Adobe Illustrator 16.0.0, SVG Export Plug-In . SVG Version: 6.00 Build 0)  -->
<!DOCTYPE svg PUBLIC "-//W3C//DTD SVG 1.1//EN" "http://www.w3.org/Graphics/SVG/1.1/DTD/svg11.dtd">
<svg version="1.1" id="圖層_1" xmlns="http://www.w3.org/2000/svg" xmlns:xlink="http://www.w3.org/1999/xlink" x="0px" y="0px"
	 width="212.6px" height="212.6px" viewBox="0 0 212.6 212.6" enable-background="new 0 0 212.6 212.6" xml:space="preserve">
<g>
	<path fill="#085497" d="M103.716,10.143v37.333h3.278V10.143h6.055c0,0,3.334,15.5,12.834,23c0,0,19.833,9.5,19.833,25.167
		c0,0,10.166-0.834,16.333,1.666c0,0,6.166,1.834,15.333,10.167c0,0,9.334,9.166,25.834,5.833l1.666,4.5l-35.333,12.5l0.667,3.5
		l36.166-11.666l1.167,5.333c0,0-14.5,7.325-16.5,18.159c0,0-2.167,22.163-18.5,27.33c0,0,7.5,7.994,3.5,22.494
		c0,0-1.834,9.497-4.667,13.497c0,0-4.499,9.166,2.334,21.5l-4,3.5l-22-29.5l-3.5,2.667l21,29.5l-3.834,3.167
		c0,0-8-9.833-23.833-9.5c0,0-21.11,5.166-30.555-9.667c0,0-7.111,13.834-29.111,9.5c0,0-15.5-0.668-24.833,8.666l-4-2.5
		l20.333-29.333l-4.167-2.5l-20.667,28.5l-4.5-2.833c0,0,10.333-13.001-1.333-33.835c0,0-4.667-9.333,2.667-21.833
		c0,0-9.5-2.833-14.667-17c0,0-3.5-23.167-21.667-29.667l1.667-5.5l35.167,11.833l1.833-5.333L8.55,80.288l1.5-5.167
		c0,0,20.333,3.834,29.5-6.666c0,0,10.167-12.333,25.833-8.5c0,0-1-13.834,15.5-24.001"/>
	<path fill="#FFFFFF" d="M134.083,85.974c-2.44-13.595-14.319-23.914-28.617-23.914c-14.391,0-26.332,10.455-28.664,24.181
		c-13.059,2.859-22.836,14.486-22.836,28.403c0,13.973,9.855,25.639,22.992,28.439c2.678,13.296,14.422,23.31,28.507,23.31
		c13.993,0,25.675-9.884,28.453-23.05c13.825-2.249,24.381-14.238,24.381-28.699C158.3,100.241,147.827,88.291,134.083,85.974z
		 M105.61,73.31c9.277,0,17.244,5.548,20.807,13.5H84.798C88.361,78.856,96.331,73.31,105.61,73.31z M65.216,114.554
		c0-7.884,4.012-14.815,10.093-18.911h26.407v37.167H89.049v-23H78.883v23h-3.667v0.593
		C69.188,129.298,65.216,122.397,65.216,114.554z M105.61,155.143c-9.277,0-17.242-5.549-20.806-13.499h41.611
		C122.851,149.595,114.887,155.143,105.61,155.143z M137.217,133.308v-0.498h-25.334v-14.166h22.167v-8.834h-22.167V95.643h25.088
		c6.076,4.097,10.079,11.031,10.079,18.911C147.05,122.329,143.157,129.191,137.217,133.308z"/>
</g>
</svg>
